<svg width="1040" height="288" viewBox="0 0 1040 288" fill="none" xmlns="http://www.w3.org/2000/svg">
<path fill-rule="evenodd" clip-rule="evenodd" d="M34.509 0H328.34C347.321 0 362.851 15.528 362.851 34.511V252.585C362.851 271.566 347.321 287.094 328.34 287.094H34.509C15.528 287.094 0 271.566 0 252.585V34.511C0 15.528 15.528 0 34.509 0Z" fill="#EA1F27"/>
<path fill-rule="evenodd" clip-rule="evenodd" d="M279.367 143.725V242.632C279.367 245.032 280.015 246.877 281.317 248.179C282.613 249.476 284.464 250.124 286.862 250.124H319.827C322.22 250.124 324.077 249.476 325.367 248.179C326.67 246.877 327.317 245.032 327.317 242.632V103.17L279.367 143.725Z" fill="white"/>
<path fill-rule="evenodd" clip-rule="evenodd" d="M279.367 47.8341V125.84L327.318 85.2852V74.2681C327.318 61.6611 327.251 40.3372 297.488 40.3372H286.862C284.47 40.3372 282.613 40.9911 281.317 42.2871C280.021 43.5771 279.367 45.4341 279.367 47.8341Z" fill="#FFCA05"/>
<path fill-rule="evenodd" clip-rule="evenodd" d="M244.469 40.3381H228.585H204.313C202.213 40.3381 200.411 40.7852 198.966 41.7332C197.47 42.6372 196.368 44.0821 195.62 46.0341L147.071 161.416L98.52 46.0331C97.772 44.0821 96.67 42.6361 95.174 41.7321C93.728 40.7841 91.927 40.3372 89.828 40.3372H82.636H49.671C47.272 40.3372 45.428 40.9841 44.126 42.2871C42.824 43.5841 42.181 45.4341 42.181 47.8341V242.631C42.181 245.031 42.824 246.876 44.126 248.178C45.428 249.475 47.273 250.123 49.671 250.123H82.636C85.029 250.123 86.886 249.475 88.183 248.178C89.478 246.876 90.133 245.031 90.133 242.631V121.503L128.188 211.769C128.936 213.712 130.04 215.158 131.534 216.062C132.986 217.01 134.78 217.458 136.876 217.458H157.26C159.359 217.458 161.16 217.009 162.606 216.062C164.102 215.158 165.204 213.713 165.952 211.769L204.007 121.503V242.632C204.007 245.032 204.662 246.877 205.965 248.179C207.255 249.476 209.11 250.124 211.503 250.124H244.469C246.862 250.124 248.721 249.476 250.016 248.179C251.312 246.877 251.967 245.032 251.967 242.632V47.8341C251.967 45.4341 251.312 43.5841 250.016 42.2871C248.721 40.9851 246.862 40.3381 244.469 40.3381Z" fill="white"/>
<path d="M1032.31 26.6721H988.949C986.575 26.6721 984.599 27.1751 983.024 28.1981C981.44 29.2141 980.139 30.7331 979.128 32.7661L940.505 106.728L901.888 32.7661C900.873 30.7341 899.577 29.2151 898 28.1981C896.416 27.1751 894.44 26.6721 892.068 26.6721H848.708C845.437 26.7281 843.231 27.6301 842.159 29.4381C841.031 31.3011 841.313 33.7251 842.951 36.8351L913.411 159.97V255.32C913.411 258.03 914.147 260.123 915.604 261.589C917.081 263.059 919.168 263.789 921.878 263.789H959.137C961.847 263.789 963.941 263.059 965.406 261.589C966.876 260.123 967.612 258.031 967.612 255.32V159.97L1038.07 36.8351C1039.71 33.7251 1039.99 31.3011 1038.86 29.4381C1037.79 27.6311 1035.59 26.7281 1032.31 26.6721ZM885.056 254.305L813.244 33.7881C812.564 31.4091 811.325 29.6062 809.63 28.4232C807.878 27.2322 805.847 26.6732 803.411 26.6732H749.219C746.846 26.6732 744.758 27.2322 743.064 28.4232C741.312 29.6062 740.128 31.4081 739.394 33.7881L667.582 254.305C666.622 257.352 666.79 259.726 668.092 261.308C669.395 262.942 671.587 263.79 674.692 263.79H716.362C718.737 263.79 720.768 263.284 722.408 262.156C723.985 261.028 725.169 259.221 725.847 256.678L734.765 226.53H779.905L802.851 175.719H749.783L776.317 85.9542L800.782 168.727L802.851 175.719L817.874 226.53L818.193 227.621L826.793 256.678C827.471 259.222 828.656 261.028 830.295 262.156C831.87 263.284 833.909 263.79 836.277 263.79H877.948C881.044 263.79 883.251 262.942 884.548 261.308C885.841 259.726 886.016 257.351 885.056 254.305ZM705.624 26.6721H665.992C663.448 26.6721 661.418 27.3431 659.89 28.5911C658.364 29.8861 657.348 31.7501 656.838 34.1251L617.548 192.654L578.251 34.1251C577.746 31.7491 576.73 29.8861 575.204 28.5911C573.682 27.3441 571.653 26.6721 569.109 26.6721H536.25C533.196 26.6721 530.996 27.5181 529.757 29.1021C528.51 30.7331 528.286 33.1091 529.133 36.1561L539.862 75.1732L508.469 192.655L469.172 34.1262C468.668 31.7502 467.651 29.8872 466.125 28.5922C464.598 27.3452 462.572 26.6732 460.03 26.6732H420.398C417.343 26.6732 415.144 27.5191 413.911 29.1031C412.664 30.7341 412.441 33.1101 413.282 36.1571L473.922 256.678C474.6 259.222 475.783 261.028 477.424 262.156C478.999 263.284 481.032 263.79 483.399 263.79H526.766C529.133 263.79 531.164 263.284 532.809 262.156C534.386 261.028 535.57 259.221 536.25 256.678L563.008 159.461L589.773 256.678C590.446 259.222 591.636 261.028 593.275 262.156C594.85 263.284 596.882 263.79 599.258 263.79H642.617C644.991 263.79 647.022 263.284 648.656 262.156C650.238 261.028 651.422 259.221 652.102 256.678L712.735 36.1571C713.587 33.1101 713.357 30.7351 712.117 29.1031C710.871 27.5191 708.671 26.6721 705.624 26.6721Z" fill="#6A4385"/>
</svg>
