<svg width="498" height="533" viewBox="0 0 498 533" fill="none" xmlns="http://www.w3.org/2000/svg">
<path fill-rule="evenodd" clip-rule="evenodd" d="M151.133 346.045C156.543 357.35 147.718 362.179 139.892 367.326L130.19 373.721C125.99 377.572 124.675 381.123 126.239 384.394L132.115 396.609C134.932 400.94 135.144 404.692 132.775 407.876L129.839 410.518C127.503 413.82 127.784 416.356 129.741 419.548L136.09 431.823C139.879 437.562 141.992 443.016 138.877 447.603C136.141 453.833 133.473 456.645 138.814 462.633C152.05 477.483 174.302 481.353 204.288 475.899C210.346 474.802 212.314 476.323 213.71 482.66L224.87 532.438C324.875 466.584 389.876 347.723 354.058 292.648C319.673 232.339 209.536 216.785 153.065 290.791C136.065 313.1 142.422 321.201 151.133 346.045Z" fill="#ED3539"/>
<path fill-rule="evenodd" clip-rule="evenodd" d="M389.995 44.2698C339.737 29.0468 276.138 59.1018 241.491 103.139C227.494 120.932 223.526 141.763 200.63 150.556C148.553 170.583 101.43 120.419 133.698 60.0478C189.801 -24.4832 313.116 -9.60423 389.995 44.2698Z" fill="#138FCE"/>
<path fill-rule="evenodd" clip-rule="evenodd" d="M226.025 304.524C250.265 321.606 364.653 404.13 363.805 325.868C363.774 323.918 372.847 352.544 374.767 352.595C376.796 352.62 378.829 352.62 380.829 352.577C427.21 365.071 432.607 436.266 392.482 449.122C318.919 470.827 237.621 415.559 226.025 304.524Z" fill="white"/>
<path fill-rule="evenodd" clip-rule="evenodd" d="M488.517 318.689C511.386 237.491 491.141 139.064 426.575 75.0907C400.341 49.0737 347.652 43.3967 320.856 68.6097C286.994 100.528 302.548 140.111 337.968 160.283C351.409 167.96 366.453 170.553 380.566 176.64C434.009 199.647 479.226 250.908 488.517 318.689Z" fill="#5CA5D7"/>
<path fill-rule="evenodd" clip-rule="evenodd" d="M359.493 263.004C368.54 277.947 380.007 300.773 383.347 323.013C384.4 330.086 383.753 335.701 381.814 342.637C362.926 410.411 267.957 358.528 237.984 322.996C260.99 420.421 368.36 494.78 453.091 390.826C462.911 378.749 471.785 360.079 474.271 344.531C480.89 303.042 456.923 238.744 416.923 217.095C386.873 196.082 338.368 220.854 359.493 263.004Z" fill="#A6C9EA"/>
<path fill-rule="evenodd" clip-rule="evenodd" d="M0.684081 227.92C20.0891 270.188 40.0491 301.472 96.4011 305.626C123.746 307.614 132.657 324.184 131.822 348.426C131.442 359.137 122.686 362.609 115.981 367.593C108.61 373.849 107.974 384.288 112.578 391.38C116.436 397.312 120.206 400.708 114.852 407.558C110.684 412.923 110.702 413.258 113.263 419.702C117.8 426.302 121.247 432.428 123.284 440.055C124.947 446.206 121.483 455.66 119.47 461.554C119.371 461.865 -9.74692 390.44 0.684081 227.92Z" fill="#FFCD2E"/>
<path fill-rule="evenodd" clip-rule="evenodd" d="M160.437 16.8198C135.342 28.1988 119.109 60.7578 111.506 86.3878C100.833 122.351 104.969 157.583 122.387 202.827C135.206 243.1 128.12 264.083 108.553 277.332C56.768 312.334 1.11398 236.683 10.99 180.405C20.456 118.326 71.194 63.1198 133.541 28.6718C136.477 27.0518 157.172 17.2678 160.437 16.8198Z" fill="#77C04C"/>
</svg>
